<svg preserveAspectRatio="none" overflow="visible" style="display: block;" width="1303.67" height="709.058" viewBox="0 0 1303.67 709.058" fill="none" xmlns="http://www.w3.org/2000/svg">
<g id="Group 54" filter="url(#filter0_f_0_321)">
<path id="Vector" d="M927.122 266.242C928.381 266.655 929.611 267.24 930.902 267.454C940.469 269.035 950.048 270.542 959.909 272.121C960.346 272.31 960.497 272.45 960.669 272.962C960.663 273.813 960.635 274.293 960.51 275.043C960.017 277.351 959.594 279.383 959.229 281.426C954.209 309.529 949.196 337.632 944.182 365.736C943.483 369.651 943.482 369.657 939.452 368.941C929.538 367.179 919.625 365.413 909.712 363.644C907.158 363.188 904.818 363.724 903.358 365.898C901.983 367.946 902.064 370.219 903.717 372.457C904.406 374.721 905.105 376.774 905.74 379.108C904.917 383.632 904.487 387.963 900.553 390.857C895.657 394.459 890.505 395.132 884.831 392.562C883.016 390.691 881.303 389.003 879.591 387.316C879.577 387.14 879.514 386.983 879.279 386.551C878.7 385.242 878.244 384.228 877.788 383.213C877.788 383.213 877.822 382.942 877.856 382.625C877.772 381.975 877.655 381.642 877.538 381.31C877.592 375.983 880.069 371.97 884.177 368.758C884.935 368.165 885.321 367.096 885.962 365.779C886.029 364.379 886.014 363.447 885.968 362.298C884.357 360.912 882.917 359.035 881.172 358.686C870.696 356.593 860.15 354.851 849.376 352.927C848.282 352.689 847.438 352.516 846.594 352.343C848.672 340.709 850.749 329.076 852.941 316.948C856.878 311.741 859.66 311.477 863.568 315.929C866.4 319.154 869.741 320.852 873.948 321.315C879.913 321.971 885.793 318.053 887.285 312.087C887.315 311.939 887.34 311.639 887.401 311.372C887.682 309.844 887.902 308.584 888.18 307.088C887.396 304.383 886.553 301.914 885.561 299.288C881.17 292.631 872.473 292.311 866.711 295.86C864.639 297.137 862.602 297.622 860.224 296.437C859.477 295.446 858.828 294.627 858.146 293.572C858.075 291.714 857.776 290.048 858.042 288.478C859.835 277.898 861.747 267.34 863.731 256.548C864.908 256.246 866.013 255.953 867.036 256.129C877.264 257.896 887.471 259.781 897.701 261.533C900.171 261.956 902.858 262.125 904.459 259.657C905.821 257.557 905.937 255.225 904.663 252.876C899.281 242.952 903.413 233.719 914.413 230.99C919.554 230.466 923.612 232.526 927.201 236.597C928.341 239.679 929.248 242.421 930.1 245.431C929.309 249.988 927.48 253.615 924.037 256.441C920.695 259.185 920.8 262.598 924.248 265.329C925.305 265.754 926.214 265.998 927.122 266.242Z" fill="white" fill-opacity="0.12"/>
<path id="Vector_2" d="M933.596 611.777C934.029 611.965 934.462 612.153 935.196 612.506C936.124 613.113 936.75 613.555 937.513 614.26C942.018 624.035 946.411 633.537 950.744 643.066C952.775 647.53 952.719 647.546 948.27 649.659C929.436 658.605 910.598 667.544 891.774 676.51C883.065 680.657 874.384 684.861 865.442 689.058C864.456 688.284 863.72 687.492 862.89 686.433C862.05 684.643 861.304 683.12 860.48 681.365C860.101 680.552 859.799 679.972 859.426 679.189C859.217 678.732 859.08 678.479 858.874 678.008C858.591 677.386 858.376 676.982 858.073 676.317C857.413 674.904 856.841 673.752 856.176 672.325C853.869 667.538 851.656 663.025 849.358 658.304C846.295 652.516 840.64 653.462 838.427 659.064C837.633 661.072 835.86 662.75 834.345 664.405C831.461 667.557 827.454 667.183 823.486 667.5C821.824 667.054 820.371 666.631 818.92 666.227C818.921 666.246 818.939 666.213 818.827 666.04C818.061 665.398 817.408 664.93 816.644 664.303C816.078 664.012 815.622 663.88 815.053 663.574C814.765 663.019 814.59 662.637 814.46 662.038C813.906 660.825 813.307 659.827 812.703 658.606C812.614 657.767 812.541 657.15 812.447 656.536C811.491 650.326 813.474 645.343 818.687 641.751C822.747 638.953 827.146 639.705 831.563 640.591C834.878 641.256 837.96 639.235 838.021 636.155C838.05 634.673 837.558 633.072 836.919 631.703C832.669 622.586 828.424 613.463 823.932 604.464C822.552 601.701 823.175 600.621 825.826 599.419C834.418 595.52 842.903 591.384 851.408 587.294C852.606 586.718 853.757 585.986 854.802 585.163C858.864 581.964 858.398 578.297 854.02 575.534C851.369 573.86 848.556 571.929 846.819 569.42C841.939 562.371 845.459 551.758 854.341 548.739C856.042 548.425 857.525 548.173 859.199 548.02C862.218 549.406 865.043 550.693 868.022 552.196C871.004 555.824 872.49 559.666 871.934 564.16C871.731 565.8 871.351 567.439 871.35 569.079C871.347 571.567 872.364 573.49 875.261 574.208C876.283 574.252 877.184 574.398 877.874 574.083C888.234 569.354 898.566 564.565 909.123 559.734C909.61 559.543 909.878 559.409 910.147 559.275C910.254 559.247 910.36 559.219 910.712 559.339C911.331 559.848 911.705 560.21 912.186 560.845C916.868 571.087 921.416 581.07 926.04 591.019C927.078 593.253 926.906 595.192 925.34 597.058C923.742 598.961 921.789 598.697 919.67 598.182C917.975 597.771 916.206 597.462 914.47 597.463C908.516 597.465 902.602 602.133 901.462 607.562C899.967 614.678 902.898 620.916 909.143 623.607C913.84 626.182 918.22 625.51 922.527 623.126C924.276 620.624 926.025 618.122 927.941 615.24C929.938 613.832 931.767 612.805 933.596 611.777Z" fill="white" fill-opacity="0.12"/>
<path id="Vector_3" d="M1074.14 543.173C1073.36 542.203 1072.25 541.353 1071.85 540.245C1068.18 530.272 1064.65 520.254 1060.87 509.769C1057.34 504.73 1053.53 504.835 1050.53 509.912C1048.25 513.771 1045.06 516.29 1040.82 516.819C1037.76 517.199 1034.56 516.379 1031.43 516.094C1031.17 515.89 1030.92 515.687 1030.44 515.255C1030.01 514.945 1029.82 514.864 1029.62 514.782C1028.27 512.84 1026.93 510.897 1025.49 508.719C1023.61 503.319 1024.03 498.525 1027.82 494.324C1031.94 489.775 1036.9 488.635 1042.74 490.37C1044.73 490.959 1047.11 491.602 1048.93 491.029C1051.77 490.136 1052.66 486.676 1051.49 483.337C1048.11 473.749 1044.77 464.145 1041.19 454.628C1040.17 451.909 1040.47 450.717 1043.4 449.704C1050.93 447.093 1058.28 443.971 1065.8 441.325C1069.28 440.101 1072.98 439.511 1077.01 438.717C1080.91 441.098 1081.45 443.629 1080.3 447.853C1079.58 450.521 1079 453.645 1079.69 456.203C1081.76 463.863 1087.48 466.998 1096.13 465.97C1101.42 464.407 1105.27 461.414 1106.48 455.298C1107.76 448.811 1105.92 444.206 1100.59 441.06C1096.9 438.888 1095.1 436.069 1096.01 431.773C1096.28 431.565 1096.55 431.357 1096.85 430.982C1107.46 427.016 1118.01 423.202 1128.59 419.437C1129.98 418.944 1131.45 418.706 1133.19 418.642C1133.97 420.731 1134.33 422.57 1134.95 424.316C1144.64 451.596 1154.36 478.863 1164.08 506.134C1165.51 510.163 1165.51 510.171 1161.35 511.655C1135.25 520.958 1109.15 530.246 1083.06 539.577C1080.05 540.656 1077.12 541.969 1074.14 543.173Z" fill="white" fill-opacity="0.12"/>
<path id="Vector_4" d="M487.534 334.001C488.606 333.945 489.678 333.889 491.125 333.849C491.841 333.766 492.182 333.667 492.523 333.568C492.523 333.568 492.53 333.521 492.672 333.708C501.1 336.804 504.835 342.496 503.69 351.338C503.422 353.412 504.316 355.253 506.391 356.116C508.385 356.946 510.252 356.966 512.219 355.556C520.896 349.335 529.674 343.255 538.586 337.01C538.983 336.739 539.209 336.583 539.639 336.464C540.341 336.269 540.839 336.037 541.499 336.049C547.844 345.115 554.009 353.949 560.218 362.753C562.764 366.363 565.993 367.842 568.497 365.923C570.203 364.616 571.386 362.233 572.101 360.096C574.606 352.605 584.159 347.447 591.912 352.019C596.478 354.712 598.512 358.621 599.383 363.667C599.161 366.154 599.017 368.443 598.817 370.73C598.763 370.728 598.7 370.818 598.5 370.928C598.067 371.226 597.833 371.413 597.391 371.768C593.274 376.452 588.648 378.989 582.362 378.351C578.52 377.961 576.377 380.79 576.898 384.832C578.185 387.099 579.489 389.107 580.9 391.348C581.633 392.758 582.149 394.009 582.903 395.097C587.727 402.059 592.604 408.986 597.268 416.061C596.703 416.502 596.335 416.806 595.713 417.25C586.749 423.474 577.952 429.439 569.409 435.749C567.897 436.866 567.444 439.416 566.479 441.537C567.212 442.668 567.968 443.566 568.875 444.627C571.67 446.034 574.314 447.279 577.073 448.667C577.508 448.952 577.829 449.096 578.289 449.424C578.714 449.975 578.998 450.341 579.428 450.932C580.567 454.032 581.56 456.908 582.467 459.966C582.177 461.459 581.975 462.77 581.622 464.252C580.32 466.195 579.17 467.967 577.864 469.859C577.515 470.154 577.322 470.33 576.911 470.646C571.76 473.858 566.523 474.645 561.387 471.739C556.187 468.796 554.35 463.868 554.821 458.013C554.87 457.396 554.84 456.769 554.803 456.15C554.575 452.295 552.042 450.287 548.313 451.198C547.053 451.506 545.827 452.206 544.745 452.957C536.231 458.869 527.752 464.832 519.273 470.795C518.023 471.674 516.974 472.515 515.703 470.667C509.012 460.93 502.243 451.246 495.533 441.374C495.574 440.353 495.582 439.503 495.701 438.454C497.295 437.046 498.778 435.837 500.459 434.685C501.872 434.858 503.089 435.077 504.304 435.066C507.257 435.041 510.188 434.845 512.519 432.159C513.823 430.946 514.901 429.887 516.157 428.7C516.837 426.985 517.339 425.397 517.829 423.82C517.817 423.83 517.848 423.844 517.991 423.681C518.302 422.523 518.666 421.515 518.607 420.532C518.183 413.492 512.965 408.047 506.067 407.339C499.287 406.644 492.697 411.055 490.98 417.705C490.271 420.451 489.161 422.571 486.201 423.095C483.196 423.627 481.413 421.801 479.857 419.577C474.09 411.334 468.298 403.109 462.382 394.655C461.748 393.727 461.248 393.021 460.982 392.144C470.625 385.127 480.033 378.282 489.639 371.299C493.794 367.059 492.837 363.078 487.377 361.46C481.704 359.778 477.579 356.639 476.502 350.509C476.149 348.499 476.146 346.427 476.169 344.254C478.72 339.245 482.37 335.787 487.534 334.001Z" fill="white" fill-opacity="0.12"/>
<path id="Vector_5" d="M175.564 540.724C175.691 540.166 175.768 539.895 175.972 539.141C177.379 533.544 178.707 528.441 179.915 523.311C180.38 521.337 180.575 519.301 180.893 517.293C181.093 516.473 181.293 515.652 181.601 514.379C181.775 513.65 181.841 513.375 181.908 513.099C183.436 507.047 183.436 507.047 189.464 508.551C197.611 510.583 205.749 512.655 213.913 514.617C215.909 515.097 217.985 515.403 220.035 515.464C224.044 515.584 226.353 511.368 224.343 507.359C219.511 497.72 223.906 490.202 232.199 486.183C233.653 485.479 235.747 486.095 238.052 486.132C243.022 486.803 245.871 489.735 248.469 493.317C250.832 501.203 249.597 507.637 242.627 512.586C239.417 514.865 240.024 518.787 243.568 521.143C245.337 521.975 246.903 522.819 248.575 523.25C257.252 525.487 265.95 527.643 274.657 529.764C276.246 530.151 277.908 530.239 279.483 530.711C279.247 531.787 279.064 532.616 278.793 533.721C276.153 544.198 273.585 554.394 271.067 564.602C270.603 566.482 270.042 568.49 272.372 569.705C272.389 569.691 272.345 569.694 272.328 569.906C272.837 570.517 273.363 570.917 274.125 571.398C275.8 571.198 277.238 570.918 278.676 570.637C284.607 568.437 290.319 567.911 295.311 572.83C296.177 573.683 297.025 574.556 298.096 575.699C298.863 577.898 299.416 579.817 299.955 582.024C297.635 594.313 291.679 598.561 280.381 596.062C279.935 595.917 279.679 595.838 279.345 595.585C278.941 595.218 278.616 595.026 278.118 594.731C277.035 593.818 276.125 593.009 275.167 592.049C274.974 591.754 274.829 591.611 274.555 591.414C274.425 591.361 274.156 591.283 274.087 591.069C273.094 588.342 271.092 587.292 268.648 587.586C266.135 587.888 264.791 589.737 264.193 592.16C261.466 603.205 258.715 614.245 255.848 625.416C255.517 625.672 255.311 625.797 254.841 625.811C224.582 618.215 194.587 610.729 164.59 603.253C163.991 603.104 163.364 603.064 162.54 602.862C161.87 602.638 161.411 602.525 160.951 602.413C161.035 601.115 160.925 599.771 161.232 598.528C165.961 579.348 170.744 560.181 175.564 540.724Z" fill="white" fill-opacity="0.12"/>
<path id="Vector_6" d="M97.6165 218.156C100.721 222.121 104.941 223.065 109.531 222.002C114.447 220.863 118.692 218.49 120.106 213.122C120.625 211.151 120.974 208.985 120.719 206.996C120.351 204.129 121.805 202.255 123.747 201.008C125.842 199.662 128.05 200.585 130.021 202.123C139.088 209.198 148.213 216.199 157.455 223.535C157.593 223.843 157.445 224.084 157.294 224.267C156.87 224.837 156.598 225.225 156.136 225.831C154.666 227.677 153.373 229.296 152.109 230.936C146.923 237.66 141.755 244.398 136.561 251.115C134.997 253.138 133.012 254.284 130.356 253.694C127.944 253.158 126.717 251.515 126.226 249.184C126.013 248.174 125.716 247.18 125.429 246.187C123.617 239.898 116.686 235.836 110.016 237.147C103.053 238.515 98.1407 244.644 98.69 251.439C98.5493 256.311 100.78 259.632 104.824 262.182C106.911 263.017 108.805 263.69 110.699 264.363C111.183 264.389 111.668 264.414 112.303 264.283C112.454 264.126 112.476 264.18 112.476 264.18C115.133 264.621 118.113 264.272 119.981 267.54C120.311 269.227 120.441 270.525 120.392 272.065C113.387 281.169 106.573 290.038 99.7154 298.873C99.0367 299.748 98.0912 300.415 97.0478 300.989C88.4226 294.338 80.0189 287.878 71.4595 281.276C71.0726 280.972 70.8415 280.811 70.4416 280.499C69.8963 280.096 69.5197 279.846 68.9862 279.438C68.359 278.402 67.8889 277.522 67.4655 276.445C67.6293 275.169 67.7465 274.09 67.8636 273.011C69.0157 270.872 70.8778 269.905 73.6447 269.666C76.6279 267.735 79.2023 265.894 81.9369 263.867C82.7431 261.196 83.3892 258.713 84.0457 256.041C83.9028 255.113 83.7495 254.374 83.5784 253.643C83.5606 253.651 83.5991 253.659 83.6351 253.449C83.2087 251.675 83.0149 249.96 82.2361 248.573C79.2996 243.343 73.0308 241.051 66.7005 242.681C60.8229 244.195 56.5955 249.268 56.5008 255.166C56.4537 258.099 56.5081 260.976 53.9344 263.226C50.6015 264.816 48.1587 263.246 45.8199 261.464C37.9531 255.471 30.1147 249.441 22.0757 243.249C21.2036 242.549 20.521 242.025 20 241.27C21.2848 239.536 22.4081 238.032 23.5314 236.528C23.9539 236.003 24.3765 235.477 25.106 234.556C27.0669 231.989 28.7209 229.818 30.3749 227.647C30.796 227.12 31.2171 226.593 31.9652 225.646C33.4265 223.73 34.5608 222.234 35.6952 220.738C35.9954 220.368 36.2956 219.998 36.9186 219.214C38.8808 216.651 40.5202 214.501 42.1596 212.351C42.827 211.504 43.4944 210.657 44.4917 209.385C45.5816 207.952 46.3417 206.944 47.1017 205.936C47.4012 205.567 47.7007 205.197 48.2969 204.446C48.9839 203.538 49.3743 203.01 49.7647 202.482C50.0639 202.114 50.363 201.745 50.9816 200.966C52.5617 198.895 53.8226 197.234 55.2617 195.379C55.961 194.483 56.4818 193.781 57.1955 192.861C60.0414 189.183 62.6944 185.722 65.5064 182.082C65.9488 181.517 66.2321 181.131 66.6495 180.595C66.9388 180.228 67.0941 180.009 67.4426 179.571C71.71 174.071 75.7842 168.792 79.8584 163.512C79.9453 163.575 80.0323 163.638 80.2553 163.787C88.9922 170.518 97.6008 177.153 106.183 183.822C107.146 184.572 107.957 185.517 109.12 186.748C109.513 188.741 109.625 190.356 109.583 192.156C108.128 193.114 106.907 194.314 105.51 194.578C101.668 195.305 98.6511 197.27 95.9928 199.959C92.916 203.071 92.2025 208.46 94.5015 211.173C94.529 211.4 94.5478 211.53 94.4279 211.818C94.2094 212.096 94.1323 212.215 93.9762 212.541C95.137 214.551 96.3768 216.354 97.6165 218.156Z" fill="white" fill-opacity="0.12"/>
<path id="Vector_7" d="M161.924 130.98C162.543 129.412 163.162 127.845 163.974 125.785C164.402 124.675 164.638 124.058 164.874 123.441C165.195 122.634 165.517 121.827 165.985 120.601C166.067 119.833 166.002 119.485 165.936 119.137C167.222 115.845 168.508 112.554 169.983 108.773C170.342 107.848 170.512 107.413 170.775 106.747C171.108 105.893 171.348 105.272 171.686 104.411C172.097 103.369 172.409 102.566 172.83 101.497C174.009 99.0248 175.279 96.8889 176.088 94.5909C176.808 92.5484 177.017 90.3262 177.452 88.1834C177.973 86.8395 178.495 85.4957 179.357 83.9116C180.362 82.6236 181.027 81.5759 181.693 80.5282C181.799 80.2683 181.905 80.0084 182.179 79.3207C183.793 75.1858 185.239 71.4787 186.686 67.7716C186.863 67.334 187.04 66.8964 187.409 65.9703C188.579 62.9576 189.559 60.4335 190.538 57.9093C190.939 56.9221 191.34 55.9348 192.09 54.7947C193.434 55.033 194.43 55.4241 195.426 55.8151C195.68 55.9163 195.934 56.0175 196.379 56.1925C215.655 63.9472 234.74 71.6282 254.286 79.4601C255.161 79.3814 255.576 79.1517 255.99 78.922C255.99 78.922 256.247 79.018 256.533 79.1191C256.922 79.2596 257.026 79.2991 257.129 79.3385C257.129 79.3385 257.373 79.4606 257.478 79.7209C258.056 80.4233 258.528 80.8654 259.001 81.3075C263.527 82.8896 268.054 84.4716 273.099 86.2546C275.388 87.1527 277.16 87.8499 278.933 88.5471C279.544 88.7874 280.156 89.0276 281.055 89.5132C281.924 90.3331 282.506 90.9076 283.012 91.6764C282.847 92.1345 282.758 92.3984 282.549 92.9276C278.542 103.078 274.578 112.933 270.848 122.877C270.264 124.431 270.741 126.384 270.768 128.382C272.27 129.26 273.731 129.908 275.405 130.609C277.915 130.248 280.201 129.574 282.513 129.469C289.469 129.154 293.639 133.217 296.592 139.148C299.44 151.708 288.853 158.768 280.99 157.076C278.359 156.51 275.952 154.906 273.399 153.579C272.285 151.783 271.215 150.184 270.07 148.381C267.536 143.717 261.649 145.297 260.018 149.908C256.146 160.859 251.627 171.582 247.188 182.342C246.765 182.222 246.522 182.157 246.013 181.973C235.873 177.999 225.999 174.144 215.893 170.179C214.11 168.801 212.56 167.532 210.928 166.082C210.816 165.095 210.787 164.291 210.853 163.254C212.49 161.359 214.032 159.697 215.791 158.006C219.118 156.071 221.245 153.504 221.631 149.483C222.546 145.512 221.742 142.081 219.657 138.683C215.916 133.361 209.306 131.341 203.634 133.636C197.128 136.268 193.756 141.667 194.686 148.065C194.722 148.576 194.802 148.913 194.846 149.446C194.996 150.26 195.183 150.879 195.386 151.716C196.123 158.619 192.817 161.096 186.5 158.628C176.664 154.784 166.821 150.958 156.809 147.023C156.325 146.376 156.013 145.829 155.7 145.282C156.061 144.894 156.423 144.507 156.969 143.655C158.364 140.087 159.575 136.984 160.785 133.88C160.962 133.444 161.138 133.008 161.475 132.161C161.732 131.494 161.828 131.237 161.924 130.98Z" fill="white" fill-opacity="0.12"/>
<path id="Vector_8" d="M852.201 127.69C855.445 125.627 858.689 123.563 862.183 121.056C863.13 117.652 863.827 114.692 864.532 111.519C864.213 105.376 859.862 100.632 853.809 99.2445C845.133 97.2554 833.645 105.119 837.738 117.841C837.779 118.613 837.845 119.206 837.783 120.006C834.205 124.344 832.494 124.665 827.809 122.098C818.815 117.17 809.816 112.252 800.61 107.198C799.829 106.743 799.257 106.419 798.685 106.096C803.602 96.726 808.52 87.3562 813.706 77.4939C814.737 75.2131 815.501 73.4248 816.315 71.4235C815.743 67.3033 814.09 66.01 810.208 66.7158C804.397 67.772 799.075 67.1863 794.63 62.5251C793.569 58.349 792.608 54.3511 791.647 50.3532C793.036 47.8073 794.424 45.2614 795.956 42.4666C796.1 42.2177 796.089 42.1984 796.301 42.2039C798.828 41.1839 801.143 40.1585 803.458 39.133C803.458 39.133 803.45 39.1201 803.663 39.2078C811.158 38.8444 815.75 42.4636 818.468 48.9301C819.488 51.3563 821 53.3115 823.897 53.2481C826.696 53.1868 828.591 51.6161 829.92 49.1669C834.264 41.1607 838.696 33.2023 843.041 25.1966C843.618 24.1324 843.889 22.9016 844.302 21.7479C845.192 21.0959 846.083 20.4438 847.431 20C859.011 26.3151 870.133 32.422 881.254 38.5289C881.826 38.8465 882.397 39.1642 883.441 39.7402C888.475 42.5115 893.035 45.0244 897.596 47.5374C897.865 47.7788 898.135 48.0202 898.81 48.3369C909.188 53.8884 919.18 59.3332 929.11 64.889C930.111 65.449 930.737 66.6795 931.396 67.7828C930.977 68.8049 930.699 69.6431 930.278 70.735C925.34 79.7094 920.536 88.425 915.76 97.1557C914.758 98.9873 913.7 100.866 915.45 103.075C915.845 103.783 916.224 104.293 916.809 104.93C918.107 105.288 919.286 105.912 920.273 105.687C928.087 103.91 934.011 106.463 938.262 113.376C938.456 116.641 938.642 119.697 938.723 122.974C936.548 130.394 929.117 134.759 921.978 132.573C919.423 131.79 917.191 129.949 914.764 128.401C914.047 127.059 913.378 125.906 912.68 124.546C911.669 121.598 910.41 119.122 907.001 118.965C903.666 118.812 902.478 121.313 901.164 123.719C895.946 133.276 890.686 142.809 885.269 152.386C884.658 152.581 884.221 152.74 883.536 152.748C873.815 147.407 864.343 142.219 854.676 136.893C853.37 135.666 852.258 134.578 851.148 133.298C850.901 132.392 850.653 131.677 850.405 130.962C850.718 130.386 851.031 129.81 851.565 128.833C851.924 128.185 852.063 127.937 852.201 127.69Z" fill="white" fill-opacity="0.12"/>
<path id="Vector_9" d="M431.72 59.2323C440.082 61.2685 443.497 66.9474 443.525 75.1743C443.527 75.9593 443.92 76.743 444.39 77.865C445.097 78.4581 445.546 78.7134 446.146 79.0372C446.51 79.0756 446.722 79.0455 446.92 79.0124C446.907 79.0094 446.922 79.0335 447.082 79.201C449.174 80.5832 450.765 79.8657 452.306 78.5435C460.337 71.6538 468.384 64.7825 476.625 57.7563C477.327 57.1711 477.828 56.7344 478.329 56.2977C478.876 56.3683 479.664 56.2293 479.934 56.5403C487.162 64.8711 494.337 73.2482 501.782 82.0606C505.025 88.268 502.99 91.6992 496.424 91.9948C495.395 92.0412 494.36 92.0965 493.344 92.2549C488.637 92.9888 483.759 97.8258 482.844 102.487C481.728 108.171 484.334 114.249 489.127 116.977C497.782 122.111 508.28 119.167 510.148 108.29C510.715 104.989 512.216 102.773 515.562 101.75C517.223 102.678 519.021 103.212 520.067 104.406C527.558 112.957 534.896 121.642 542.283 130.285C542.443 130.505 542.603 130.725 542.716 131.259C542.315 131.878 541.961 132.182 541.607 132.485C541.253 132.785 540.898 133.085 540.367 133.536C517.133 153.331 494.081 172.983 470.996 192.596C470.109 193.35 468.909 193.736 467.555 194.031C466.984 193.308 466.714 192.848 466.286 192.148C459.356 183.932 452.569 175.968 445.82 167.972C442.917 164.532 443.184 162.224 446.686 159.351C447.166 158.957 447.644 158.56 448.281 158.127C448.76 158.03 449.08 157.971 449.606 157.972C452.038 157.893 454.448 158.254 456.452 157.515C461.036 155.823 463.823 152.268 464.649 147.399C465.57 141.97 464.014 137.291 459.68 133.833C457.653 132.216 455.493 130.278 452.447 131.528C452.45 131.552 452.462 131.504 452.314 131.35C451.357 131.199 450.547 131.203 449.533 131.145C445.602 131.237 442.442 132.423 440.551 135.914C439.428 138.292 438.288 140.661 437.19 143.05C436.642 144.244 436.171 145.473 435.503 146.854C433.82 147.621 432.3 148.222 430.388 148.659C429.345 148.112 428.693 147.728 427.885 147.105C420.052 137.881 412.374 128.896 404.743 119.645C411.429 113.607 418.065 107.83 424.709 102.063C426.979 100.093 429.54 98.3732 431.445 96.1006C432.544 94.7888 433.291 92.4313 432.907 90.8598C432.587 89.5528 430.385 88.7061 429.011 87.678C429.006 87.7005 429.019 87.6521 428.933 87.5238C428.846 87.3955 428.612 87.1936 428.418 87.1054C425.674 86.1422 423.124 85.2671 420.4 84.1679C418.724 81.0719 416.473 78.3474 415.873 75.2982C414.559 68.6126 417.852 63.627 423.529 59.997C426.396 59.7694 429.058 59.5009 431.72 59.2323Z" fill="white" fill-opacity="0.12"/>
<path id="Vector_10" d="M1120.81 233.43C1121.32 233.829 1121.83 234.229 1122.53 234.787C1122.6 235.256 1122.48 235.565 1122.27 236.227C1121.54 237.229 1120.9 237.879 1120.06 238.728C1101.6 262.965 1083.33 286.983 1065.15 311.073C1063.54 313.202 1062.51 313.554 1060.28 311.809C1052.04 305.341 1043.71 298.981 1035.21 292.865C1033.71 291.78 1031.1 291.466 1029.22 291.849C1026.85 292.33 1026.08 294.612 1026.38 297.253C1026.57 305.331 1023.02 310.811 1016.39 312.813C1010.56 314.574 1004.04 312.047 1000.76 306.33C999.51 304.155 999.124 301.486 998.346 299.042C999.315 296.381 999.989 293.553 1001.36 291.119C1002.24 289.557 1004.15 288.575 1005.95 287.071C1007.01 286.473 1007.72 286.138 1008.62 285.794C1009.09 285.583 1009.38 285.38 1009.67 285.15C1009.67 285.123 1009.67 285.177 1009.87 285.278C1011.47 284.644 1012.88 283.908 1014.42 283.006C1014.68 282.327 1014.81 281.814 1015.04 281.101C1014.41 279.218 1014.14 276.948 1012.87 275.948C1004.2 269.12 995.318 262.558 986.355 255.761C985.979 255.439 985.754 255.266 985.381 254.891C985.665 253.712 985.929 252.608 986.554 251.775C993.003 243.177 999.511 234.623 1006.15 225.881C1011.13 222.529 1014.23 223.492 1016.05 228.731C1016.42 229.806 1016.79 230.881 1017.18 231.953C1018.96 236.956 1024.43 240.866 1029.54 240.787C1035.55 240.694 1040.44 237.253 1042.49 231.563C1044.42 228.239 1044.27 225.075 1042.8 221.667C1040.43 215.611 1036.07 212.555 1029.83 212.929C1026.88 213.106 1024.59 212.428 1022.36 210.383C1021.91 209.162 1021.58 208.109 1021.4 206.842C1022.42 205.125 1023.17 203.522 1024.2 202.138C1030.52 193.705 1036.9 185.322 1043.25 176.922C1043.67 176.626 1044.09 176.329 1044.81 176.035C1045.2 176.1 1045.29 176.162 1045.38 176.224C1045.59 176.387 1045.8 176.551 1046.4 177.011C1071.47 196.015 1096.14 214.722 1120.81 233.43Z" fill="white" fill-opacity="0.12"/>
<path id="Vector_11" d="M242.183 389.96C246.404 391.008 250.013 389.558 253.478 387.299C256.828 385.115 258.241 385.285 261.612 388.291C262.111 389.345 262.421 390.072 262.701 391.09C261.561 402.304 260.376 413.219 259.397 424.153C259.167 426.721 258.343 427.42 255.768 427.127C245.272 425.933 234.754 424.937 224.241 423.896C221.876 423.661 219.601 423.915 218.299 426.269C217.087 428.46 217.315 430.629 218.737 432.701C219.319 433.55 219.836 434.452 220.296 435.373C222.807 440.403 221.227 448.265 217.011 451.849C211.757 456.316 206.138 456.525 198.792 452.38C197.281 450.506 195.903 448.776 194.526 447.045C194.388 444.247 194.109 441.447 194.149 438.652C194.197 435.23 196.719 433.048 198.846 430.286C199.243 429.371 199.422 428.753 199.602 428.135C199.602 428.135 199.628 427.967 199.807 427.766C201.214 425.357 200.374 422.796 197.989 421.919C196.551 421.391 195.026 420.978 193.508 420.815C184.143 419.814 174.771 418.88 165.396 417.981C164.404 417.886 163.376 418.168 162.365 418.275C161.931 417.705 161.077 417.095 161.127 416.573C161.856 409.013 162.706 401.465 163.543 393.623C163.594 393.054 163.629 392.775 163.718 392.001C164.035 388.811 164.297 386.117 164.56 383.422C164.675 382.354 164.791 381.285 164.963 379.662C165.448 374.761 165.877 370.416 166.305 366.071C166.566 363.57 166.827 361.069 167.145 358.007C167.341 355.983 167.479 354.52 167.618 353.056C167.881 350.556 168.143 348.056 168.461 345.013C168.595 343.613 168.673 342.757 168.751 341.9C168.826 341.236 168.9 340.571 169.025 339.415C169.238 337.231 169.399 335.538 169.561 333.844C169.636 333.178 169.711 332.513 169.838 331.351C169.947 330.2 170.006 329.543 170.064 328.886C170.138 328.221 170.212 327.555 170.331 326.436C170.395 325.711 170.415 325.439 170.434 325.167C171.293 323.43 169.556 320.749 172.949 319.778C183.818 320.867 194.143 321.933 204.472 322.946C208.208 323.313 211.382 321.831 211.604 319.041C211.77 316.971 210.972 314.578 209.921 312.714C208.22 309.701 207.216 306.701 207.778 303.001C208.643 297.576 211.622 294.175 216.372 292.121C220.678 290.258 224.719 291.614 228.916 293.057C230.811 295.172 232.587 297.12 234.396 299.307C236.434 305.955 235.305 311.464 230.18 316.147C227.538 318.561 227.944 322.382 230.703 324.596C231.534 325.119 232.272 325.451 233.299 325.83C245.372 327.082 257.157 328.285 268.952 329.482C268.964 329.476 268.94 329.467 268.915 329.731C268.783 331.055 268.677 332.113 268.529 333.462C267.487 343.636 266.485 353.52 265.488 363.405C265.214 366.113 264.454 368.523 261.555 369.507C258.64 370.497 256.667 369.084 254.829 366.966C252.268 364.016 248.793 362.306 245.011 362.365C234.645 362.528 228.431 372.435 232.358 382.321C234.356 386.702 237.567 389.26 242.183 389.96Z" fill="white" fill-opacity="0.12"/>
<path id="Vector_12" d="M439.766 508.583C441.151 508.505 442.566 508.373 443.632 508.921C451.747 513.092 459.775 517.43 467.874 521.632C469.696 522.578 471.642 523.355 473.613 523.928C477.207 524.973 480.287 522.459 480.185 518.688C480.158 517.657 479.964 516.631 479.851 515.602C478.732 505.452 484.372 499.104 494.625 498.975C495.246 498.967 495.869 498.996 496.954 499.147C502.159 501.117 505.126 504.627 506.832 509.496C507.57 518.276 505.114 522.493 497.17 526.458C496.2 526.943 495.24 527.729 494.637 528.62C492.312 532.06 493.73 535.156 498.505 537.599C507.532 542.215 516.535 546.876 525.594 551.693C526.33 552.561 527.018 553.255 527.59 554.154C527.26 554.777 527.047 555.196 526.678 555.867C521.997 564.356 517.42 572.566 512.964 580.84C508.47 589.182 507.196 589.512 500.076 583.76C500.049 583.774 500.109 583.763 500.21 583.565C499.873 578.361 495.554 574.465 489.472 573.793C483.666 573.152 479.027 575.589 476.058 580.346C473.678 584.161 472.593 588.544 475.424 593.05C476.441 594.752 477.498 596.258 478.717 597.879C479.115 598.121 479.348 598.248 479.802 598.504C480.473 598.871 480.925 599.109 481.503 599.541C484.335 602.356 487.62 601.739 490.687 600.995C494.292 600.12 496.939 601.245 499.224 603.866C499.308 604.458 499.393 605.05 499.379 606.065C498.948 607.315 498.616 608.143 498.102 609.194C493.104 618.477 488.192 627.487 483.536 636.628C482.209 639.231 481.086 639.4 478.608 638.08C452.903 624.392 427.134 610.824 401.379 597.231C400.282 596.652 399.144 596.153 397.828 595.462C397.035 595.021 396.439 594.735 395.843 594.448C395.752 594.365 395.662 594.282 395.432 594.077C395.788 593 396.283 592.046 397.021 590.638C397.629 589.148 397.994 588.11 398.358 587.073C398.568 586.667 398.777 586.262 399.238 585.44C402.684 578.915 405.88 572.807 409.076 566.699C409.208 566.459 409.34 566.22 409.689 565.559C410.407 564.189 410.908 563.24 411.409 562.291C416.355 557.548 420.302 560.285 421.992 564.618C425.75 574.257 436.572 576.612 444.441 569.168C449.019 564.401 449.961 557.003 445.68 551.506C443.037 546.84 437.907 545.058 431.814 546.006C429.543 546.359 427.088 545.524 424.667 545.062C424.36 544.658 424.104 544.424 423.799 544.001C423.528 543.493 423.304 543.176 423.15 542.709C423.181 542.241 423.141 541.922 423.101 541.604C428.612 530.683 434.124 519.763 439.766 508.583Z" fill="white" fill-opacity="0.12"/>
<path id="Vector_13" d="M1260.12 68.6696C1260.59 69.0979 1260.77 69.5892 1261.18 70.4074C1261.51 71.1408 1261.62 71.5471 1261.66 72.2121C1261.8 73.5842 1261.96 74.7099 1262.23 75.8097C1269.42 105.263 1276.63 134.714 1283.67 164.24C1283.42 164.372 1283.31 164.429 1282.93 164.516C1271.36 167.319 1260.08 170.093 1248.57 172.878C1247.86 172.95 1247.39 173.011 1246.92 173.071C1246.48 172.639 1246.09 172.145 1245.6 171.785C1242.34 169.378 1241.88 167.434 1243.64 163.742C1244.19 162.568 1244.51 161.279 1244.96 159.61C1245.05 158.011 1245.11 156.844 1245.13 155.443C1244.95 154.748 1244.82 154.287 1244.64 153.565C1243.48 148.433 1241.11 145.621 1237.65 145.088C1236.49 144.446 1235.55 143.72 1234.5 143.519C1228.1 142.292 1222.01 145.486 1219.22 151.402C1216.46 157.25 1218.02 163.668 1223.41 168.219C1224.7 169.909 1225.86 171.428 1227.04 173.17C1226.95 177.201 1224.96 178.872 1221.23 179.664C1212.34 181.55 1203.55 183.873 1194.73 186.067C1193.77 186.306 1192.89 186.857 1191.74 187.328C1190.88 187.573 1190.25 187.753 1189.39 187.851C1188.62 186.711 1187.86 185.709 1187.58 184.587C1185.08 174.707 1182.66 164.807 1180.17 154.659C1179.61 153.23 1179.09 152.054 1178.49 150.67C1175.47 147.651 1172.72 147.71 1170.13 151.251C1167.19 155.272 1163.53 157.706 1158.39 158.198C1155 156.893 1151.83 155.637 1148.52 154.225C1147.33 152.921 1146.29 151.773 1145.19 150.432C1145.05 149.981 1144.96 149.723 1144.84 149.236C1144.69 148.554 1144.58 148.102 1144.42 147.406C1144.2 146.519 1144.03 145.876 1143.82 145.033C1143.73 144.565 1143.67 144.297 1143.74 143.854C1143.92 142.686 1143.98 141.694 1144.01 140.557C1143.99 140.413 1143.93 140.128 1144.08 139.982C1145.7 137.62 1147.17 135.405 1148.82 133.126C1149.22 132.807 1149.46 132.55 1149.98 132.218C1155.62 130.186 1160.78 130.074 1166.15 132.622C1169.92 134.412 1173.14 131.906 1173.25 127.694C1173.28 126.58 1173.03 125.437 1172.77 124.342C1170.15 113.558 1167.51 102.781 1165.02 91.9637C1165.15 91.9251 1165.43 91.8275 1165.43 91.8275C1176.13 89.2127 1186.83 86.5426 1197.56 84.0365C1199.39 83.6089 1201.39 83.8829 1203.64 83.989C1204.46 84.5147 1204.95 84.884 1205.52 85.5093C1206.55 88.1167 1206.26 90.2498 1205.08 92.56C1201.81 98.9776 1203.82 106.374 1209.72 110.104C1213.15 112.214 1216.47 114.005 1220.37 111.777C1226.45 110.678 1229.97 107.034 1231.09 100.988C1231.92 96.4884 1229.33 90.2731 1225.45 87.7981C1222.66 86.0157 1221.06 83.8075 1222.4 80.0335C1223.08 78.9922 1223.61 78.2676 1224.14 77.543C1236.04 74.6062 1247.94 71.6694 1260.12 68.6696Z" fill="white" fill-opacity="0.12"/>
<path id="Vector_14" d="M687.196 490.525C687.206 490.243 687.215 489.96 687.233 489.212C687.066 486.206 686.891 483.665 686.716 481.123C686.887 478.759 686.81 476.345 687.278 474.042C688.287 469.079 692.344 467.854 696.271 471.167C701.841 475.868 707.309 476.592 713.074 473.24C716.563 471.211 718.596 468.034 719.645 463.737C719.682 463.024 719.688 462.748 719.694 462.471C719.705 462.203 719.716 461.936 719.72 461.2C719.539 456.472 718.4 452.731 714.114 450.437C709.743 446.423 702.696 446.305 698.139 450.061C695.878 451.925 693.65 453.744 690.306 452.833C689.237 451.949 688.28 451.226 687.324 450.503C687.295 438.904 687.266 427.305 687.244 415.155C687.26 413.734 687.269 412.863 687.278 411.992C698.55 411.996 709.822 411.98 721.094 412.029C722.515 412.036 723.935 412.388 725.711 412.8C726.775 414.104 727.484 415.189 728.188 416.51C727.252 418.755 726.6 420.962 725.337 422.735C721.358 428.321 721.226 433.995 725.352 439.636C727.792 442.766 730.631 444.764 734.606 444.565C743.377 446.85 752.402 437.333 749.833 428.298C749.148 425.891 747.67 423.663 746.318 421.501C743.773 417.429 743.911 415.608 747.798 412.206C750.131 411.859 752.037 411.655 753.943 411.452C754.801 411.457 755.659 411.462 757.053 411.464C761.556 411.615 765.524 411.769 769.492 411.923C769.965 411.938 770.437 411.954 771.405 411.975C772.771 411.965 773.643 411.95 774.515 411.934C777.016 411.948 779.516 411.962 782.533 411.978C783.919 412.206 784.788 412.432 785.654 412.916C785.657 414.034 785.664 414.895 785.654 416.048C785.641 426.4 785.646 436.459 785.649 446.519C785.65 449.313 786.356 451.657 789.584 452.654C791.092 452.297 792.454 451.785 793.993 451.188C794.882 450.547 795.593 449.991 796.305 449.435C796.497 449.361 796.654 449.242 796.846 448.945C800.03 448.195 803.144 447.577 806.701 447.118C809.534 448.207 811.926 449.136 814.318 450.066C814.318 450.066 814.347 450.026 814.335 450.262C815.577 452.831 816.832 455.165 818.082 457.784C818.072 470.105 813.091 475.261 801.651 474.8C799.403 473.749 797.359 472.759 795.173 471.579C793.42 469.046 790.829 468.448 788.773 469.678C787.238 470.596 785.799 473.044 785.751 474.85C785.464 485.4 785.51 495.962 785.653 506.518C785.693 509.428 784.946 510.473 781.86 510.429C770.891 510.274 759.918 510.41 748.757 510.342C747.244 509.47 745.919 508.69 744.595 507.911C745.001 505.406 745.408 502.9 745.848 500.151C745.881 499.909 745.877 499.891 746.087 499.857C747.391 497.965 748.484 496.108 749.58 494.096C749.584 493.942 749.555 493.635 749.566 493.388C749.588 492.484 749.598 491.826 749.772 491.001C750.349 487.432 749.079 484.697 746.501 482.251C742.997 477.737 738.616 476.229 733.256 477.422C728.167 478.555 724.843 481.807 723.122 486.502C721.334 491.385 721.981 496.046 725.856 500.151C726.708 502.029 727.503 503.699 728.25 505.586C727.137 509.364 724.566 510.454 721.082 510.432C710.642 510.366 700.201 510.415 689.76 510.419C689.477 510.422 689.194 510.425 688.571 510.455C688.231 510.482 687.974 510.514 687.974 510.514C687.863 510.496 687.753 510.479 687.477 510.445C687.281 509.959 687.251 509.489 687.226 508.509C687.216 506.324 687.201 504.65 687.186 502.976C687.204 501.288 687.221 499.6 687.241 497.372C687.227 494.729 687.212 492.627 687.196 490.525Z" fill="white" fill-opacity="0.12"/>
<path id="Vector_15" d="M453.936 237.47C458.258 237.47 462.348 237.393 466.429 237.558C467.456 237.6 468.452 238.419 469.534 239.352C469.481 251.113 469.205 262.406 469.356 273.692C469.386 275.925 470.867 278.348 474.078 277.949C475.493 277.487 477.191 277.376 478.274 276.502C483.176 272.546 488.355 271.233 494.647 274.213C500.325 277.394 502.091 282.252 502.149 288.205C500.272 296.581 493.856 301.554 485.093 300.253C481.924 298.369 478.942 296.589 475.701 294.78C470.844 294.858 469.208 296.597 469.189 301.663C469.145 313.078 469.165 324.493 469.137 335.906C469.116 335.905 469.119 335.947 468.827 335.957C456.703 335.98 444.872 335.993 432.83 335.947C431.503 335.263 430.388 334.638 429.273 334.014C428.063 330.851 428.483 328.083 430.759 325.411C433.384 322.33 435.006 318.794 433.72 314.098C433.193 312.554 432.776 311.468 432.316 310.171C430.442 308.22 428.611 306.48 426.629 304.572C420.629 301.643 414.086 302.618 410.205 306.828C405.928 311.467 405.125 317.859 408.138 323.629C408.892 324.828 409.656 325.792 410.363 326.796C413.233 330.874 411.294 335.273 406.326 335.871C404.997 336.031 403.637 335.921 402.291 335.944C392.16 336.12 382.029 336.297 371.735 336.323C371.309 335.508 370.829 334.848 370.82 334.181C370.759 329.666 370.82 325.149 370.801 320.632C370.773 313.88 370.712 307.128 370.672 300.136C370.634 297.486 369.569 295.253 367.277 295.001C365.307 294.785 362.796 295.485 361.195 296.679C356.526 300.159 351.744 301.603 346.205 299.213C344.798 298.606 343.44 297.884 341.971 297.024C340.494 294.28 339.106 291.726 337.717 289.172C337.716 288.312 337.715 287.453 337.713 286.127C337.717 285.385 337.72 285.108 337.879 284.673C338.538 282.958 339.042 281.401 339.545 279.843C342.766 272.845 351.908 270.793 357.997 274.482C359.411 275.339 360.737 276.341 362.12 277.251C365.793 279.67 368.76 278.43 370.233 274.35C371.846 269.882 370.762 265.447 370.744 260.991C370.713 253.561 370.729 246.132 370.724 238.411C370.912 238.037 371.065 237.912 371.254 237.612C382.522 237.483 393.721 237.414 404.917 237.559C406.893 237.584 408.858 238.5 411.032 239.413C411.934 242.252 412.625 244.746 410.392 246.746C403.811 252.639 404.216 265.974 416.117 269.807C422.466 272.04 428.351 269.355 431.585 264.566C435.403 258.913 434.951 252.085 430.483 247.139C427.169 243.47 427.997 239.624 433.018 237.521C434.15 237.48 434.812 237.47 435.474 237.46C440.266 237.466 445.058 237.473 450.374 237.479C451.363 237.472 451.828 237.465 452.293 237.458C452.763 237.466 453.232 237.474 453.936 237.47Z" fill="white" fill-opacity="0.12"/>
<path id="Vector_16" d="M629.106 231.227C625.791 219.629 622.476 208.032 619.088 196.151C619.015 195.869 619.011 195.868 619.292 195.788C630.429 192.603 641.329 189.639 652.096 186.255C653.928 185.679 655.964 183.51 656.472 181.68C656.874 180.227 655.238 178.07 654.208 176.413C653.583 175.409 652.387 174.761 651.45 173.951C646.131 169.348 645.15 161.97 649.076 156.103C649.832 155.171 650.589 154.238 651.611 153.011C653.405 151.867 654.933 151.018 656.461 150.17C657.088 150.002 657.716 149.833 658.777 149.705C662.563 150.569 665.916 151.393 669.365 152.439C673.188 156.239 675.211 160.506 674.4 165.749C674.118 167.565 673.316 169.296 672.828 171.087C671.528 175.853 673.721 178.595 679.076 178.576C680.383 178.239 681.423 177.944 682.737 177.584C684.628 177.045 686.246 176.569 688.148 176.028C695.822 173.837 703.213 171.711 710.848 169.53C711.734 169.295 712.376 169.115 713.183 169.008C713.544 169.375 713.742 169.668 713.997 170.191C714.201 170.868 714.346 171.317 714.549 172.052C717.392 182.121 720.126 191.919 723 201.675C723.8 204.392 723.893 206.784 721.597 208.778C719.334 210.743 716.999 210.03 714.636 208.934C707.471 205.613 700.262 207.782 696.667 214.313C692.841 221.262 694.846 228.994 701.713 233.333C704.33 233.944 706.796 234.408 709.262 234.872C714.126 235.092 717.534 232.479 720.238 228.888C723.211 224.939 724.371 224.398 729.088 226.142C730.253 229.115 731.118 231.861 731.914 234.626C734.384 243.203 736.854 251.779 739.249 260.377C739.564 261.506 739.441 262.756 739.234 263.976C728.59 266.948 718.212 269.827 707.895 272.914C706.46 273.344 705.33 274.795 704.058 275.789C704.057 275.805 704.037 275.78 703.81 275.832C701.541 278.784 702.097 280.898 705.209 282C705.221 281.977 705.177 282.003 705.175 282.181C705.22 282.469 705.266 282.579 705.419 282.879C707.277 284.772 709.027 286.475 710.875 288.444C714.394 296.69 711.623 304.166 705.331 307.512C703.182 308.654 700.666 309.104 698.132 309.838C697.458 309.758 696.97 309.708 696.444 309.662C696.407 309.666 696.371 309.6 696.259 309.426C693.1 307.469 690.053 305.685 687.006 303.901C686.253 302.179 685.499 300.456 684.624 298.344C684.502 297.954 684.408 297.682 684.408 297.682C684.355 297.41 684.301 297.138 684.31 296.479C684.679 294.581 684.987 293.072 685.294 291.562C685.874 289.824 686.453 288.085 686.919 285.892C686.083 284.361 685.362 283.285 684.542 282.043C684.208 281.796 683.972 281.714 683.639 281.635C683.542 281.639 683.362 281.71 683.158 281.575C681.655 281.328 680.249 280.838 679.071 281.165C669.292 283.881 659.556 286.749 649.537 289.604C648.214 289.92 647.162 290.204 646.11 290.487C642.905 279.317 639.725 268.14 636.476 256.982C635.758 254.517 635.545 252.214 637.834 250.503C640.041 248.853 642.4 248.788 644.805 250.238C652.626 254.954 665.573 248.219 664.5 238.059C664.26 235.785 664.714 233.468 662.358 231.468C661.829 230.592 661.474 230.131 661.119 229.671C661.119 229.671 661.075 229.44 660.898 229.157C653.676 221.56 645.576 222.159 639.042 230.48C635.756 234.664 634.41 235.02 629.653 232.957C629.653 232.957 629.653 232.994 629.608 232.758C629.411 232.091 629.258 231.659 629.106 231.227Z" fill="white" fill-opacity="0.12"/>
</g>
<defs>
<filter id="filter0_f_0_321" x="-0.286203" y="-16.548" width="1304.68" height="740.467" filterUnits="userSpaceOnUse" color-interpolation-filters="sRGB">
<feFlood flood-opacity="0" result="BackgroundImageFix"/>
<feBlend mode="normal" in="SourceGraphic" in2="BackgroundImageFix" result="shape"/>
<feGaussianBlur stdDeviation="10" result="effect1_foregroundBlur_0_321"/>
</filter>
</defs>
</svg>
